<?xml version="1.0" encoding="UTF-8"?>
<svg width="30px" height="30px" viewBox="0 0 30 30" version="1.1" xmlns="http://www.w3.org/2000/svg" xmlns:xlink="http://www.w3.org/1999/xlink">
    <!-- Generator: Sketch 53.1 (72631) - https://sketchapp.com -->
    <title>icon/location</title>
    <desc>Created with Sketch.</desc>
    <g id="icon/location" stroke="none" stroke-width="1" fill="none" fill-rule="evenodd">
        <path d="M14.7715188,1.00712649 C9.20853797,1.2023188 4.587073,5.5424772 4.05316463,11.0824942 C3.94408657,12.1904976 4.00723703,13.2640553 4.20242934,14.2916854 L4.20242934,14.2916854 C4.20242934,14.2916854 4.21965219,14.4122454 4.27706169,14.6418834 C4.4492902,15.4111707 4.70763296,16.1574942 5.02912618,16.8578902 C6.14861148,19.5102092 8.73778005,23.9479638 14.5476217,28.7761029 C14.9035606,29.0746324 15.4259871,29.0746324 15.787667,28.7761029 C21.5975087,23.9537047 24.1866772,19.5159502 25.3119035,16.8521492 C25.6391376,16.1517533 25.8917395,15.4111707 26.063968,14.6361424 C26.1156365,14.4122454 26.1386003,14.2859445 26.1386003,14.2859445 L26.1386003,14.2859445 C26.2706422,13.5970304 26.3395336,12.8908935 26.3395336,12.1675338 C26.3395336,5.86397042 21.1210098,0.783229431 14.7715188,1.00712649 Z M15.1676443,17.7247737 C12.1708683,17.7247737 9.74244635,15.2963517 9.74244635,12.2995757 C9.74244635,9.30279963 12.1708683,6.87437767 15.1676443,6.87437767 C18.1644204,6.87437767 20.5928424,9.30279963 20.5928424,12.2995757 C20.5928424,15.2963517 18.1644204,17.7247737 15.1676443,17.7247737 Z" id="Shape" fill="#00a7e1" fill-rule="nonzero"></path>
    </g>
</svg>